<svg width="110" height="77" viewBox="0 0 110 77" fill="none" xmlns="http://www.w3.org/2000/svg">
<path d="M101.263 68.2902L101.256 68.2971L101.25 68.3037C96.3669 73.1865 90.4896 75.6365 83.6486 75.6365C76.8077 75.6365 70.9304 73.1865 66.0476 68.3037L66.041 68.2971L66.0346 68.2902C61.1635 63.0945 58.7149 57.065 58.7149 50.2252C58.7149 44.034 60.8364 38.4916 65.0569 33.6182C68.8235 28.9141 73.6614 26.1617 79.5433 25.3783C76.362 15.3122 70.9319 7.69366 63.2671 2.48162L63.6903 1.42551C75.2722 3.35582 85.7201 8.66497 95.0275 17.3305L95.0276 17.3304L95.0349 17.3375C104.068 26.0483 108.582 37.0256 108.582 50.2252C108.582 57.065 106.134 63.0945 101.263 68.2902ZM43.9654 68.2902L43.959 68.2971L43.9524 68.3037C39.0696 73.1865 33.1922 75.6365 26.3513 75.6365C19.5104 75.6365 13.6331 73.1865 8.75032 68.3037L8.74368 68.2971L8.73726 68.2902C3.86623 63.0945 1.41757 57.065 1.41757 50.2252C1.41757 44.034 3.53914 38.4916 7.75961 33.6182C11.5262 28.914 16.3641 26.1617 22.246 25.3783C19.0647 15.3122 13.6346 7.69366 5.96979 2.48162L6.39304 1.42551C17.9749 3.35582 28.4228 8.66497 37.7302 17.3305L37.7303 17.3304L37.7376 17.3375C46.7711 26.0483 51.2851 37.0256 51.2851 50.2252C51.2851 57.065 48.8364 63.0945 43.9654 68.2902Z" stroke="white" stroke-opacity="0.35" stroke-width="1.16484" stroke-linecap="round"/>
</svg>
