<svg width="447" height="431" viewBox="0 0 447 431" fill="none" xmlns="http://www.w3.org/2000/svg">
<path d="M225.941 0V155.042H192.521C149.708 155.042 115 120.335 115 77.521C115 34.7073 149.708 0 192.521 0L225.941 0Z" fill="#AEAEAE" fill-opacity="0.13" style="mix-blend-mode:hard-light"/>
<path d="M300.822 276.997C294.328 273.657 292.517 277.189 293.637 278.149C294.444 278.84 297.059 277.598 300.895 277.228C303.381 276.988 304.768 278.38 307.69 276.652C310.182 275.039 308.382 273.887 300.822 276.997ZM300.822 276.997C303.126 282.027 306.305 293.907 301.513 303.03C299.824 305.296 297.274 312.061 300.592 321" stroke="url(#paint0_linear_1173_14348)" stroke-width="0.23038" stroke-linecap="round"/>
<path d="M287.902 251.614C283.802 261.487 294.995 273.379 300.664 276.652C301.01 277.919 299.627 278.034 298.36 278.034C297.093 278.034 297.093 279.417 297.554 279.417C298.015 279.417 299.742 278.149 299.973 278.841C300.203 279.532 300.549 278.265 301.01 278.034C301.47 277.804 303.198 280.799 303.889 280.108C304.58 279.417 303.198 278.725 302.507 278.034C301.954 277.481 301.01 276.921 301.47 276.652C316.099 269.046 318.868 256.882 316.791 251.614C313.038 242.095 304.955 240.557 301.01 241.058C294.964 241.923 289.491 246.472 287.902 251.614Z" fill="#238500"/>
<path d="M202.686 239.275C174.5 224.775 166.638 240.108 171.5 244.275C175 247.275 186.353 241.881 203.005 240.275C213.794 239.234 219.813 245.275 232.499 237.775C243.313 230.775 235.499 225.775 202.686 239.275ZM202.686 239.275C212.686 261.108 226.486 312.675 205.686 352.275C198.353 362.108 187.286 391.475 201.686 430.275" stroke="url(#paint1_linear_1173_14348)" stroke-linecap="round"/>
<path d="M146.603 129.092C128.806 171.951 177.393 223.566 202 237.775C203.5 243.275 197.5 243.775 192 243.775C186.5 243.775 186.5 249.775 188.5 249.775C190.5 249.775 198 244.275 199 247.275C200 250.275 201.5 244.775 203.5 243.775C205.5 242.775 213 255.775 216 252.775C219 249.775 213 246.775 210 243.775C207.6 241.375 203.5 238.941 205.5 237.775C269 204.758 281.016 151.962 272 129.092C255.71 87.7747 220.626 81.1 203.5 83.2747C177.258 87.0271 153.5 106.775 146.603 129.092Z" fill="#238500"/>
<path d="M263.5 167.775C278.5 136.775 256.833 108.442 241 96.2749C263.5 137.275 247.5 184.775 233 207.775L251.5 185.275L263.5 167.775Z" fill="#90DC75"/>
<path d="M150.274 161.315C143.523 143.522 153.274 127.258 160.4 120.275C150.274 143.809 157.474 171.073 164 184.275L155.674 171.36L150.274 161.315Z" fill="#1A5E02"/>
<path d="M251 237L251 291" stroke="#238500" stroke-linecap="round"/>
<path d="M144 205V256" stroke="#238500" stroke-linecap="round"/>
<path d="M182 273V304" stroke="#238500" stroke-linecap="round"/>
<path d="M198 347V356" stroke="#238500" stroke-linecap="round"/>
<path d="M291 128V137" stroke="#238500" stroke-linecap="round"/>
<path d="M229 360V369" stroke="#238500" stroke-linecap="round"/>
<path d="M164 52V61" stroke="#238500" stroke-linecap="round"/>
<path d="M178.395 66L333.437 66V99.4202C333.437 142.234 298.729 176.941 255.916 176.941C213.102 176.941 178.395 142.234 178.395 99.4202V66Z" fill="#8E8E8E" fill-opacity="0.88" style="mix-blend-mode:hard-light"/>
<path d="M178.395 66L333.437 66V99.4202C333.437 142.234 298.729 176.941 255.916 176.941C213.102 176.941 178.395 142.234 178.395 99.4202V66Z" fill="#939393" fill-opacity="0.04" style="mix-blend-mode:hard-light"/>
<path d="M214.92 36.592L214.08 35.536C213.76 35.056 213.504 34.608 213.312 34.192C213.12 33.776 212.984 33.264 212.904 32.656C212.792 32.272 212.72 31.912 212.688 31.576C212.656 31.24 212.64 30.856 212.64 30.424C212.656 29.976 212.672 29.424 212.688 28.768C212.704 28.16 212.768 27.72 212.88 27.448C213.008 27.176 213.104 26.976 213.168 26.848C213.328 26.656 213.472 26.632 213.6 26.776C213.744 26.92 213.856 27.168 213.936 27.52C214.032 27.856 214.072 28.256 214.056 28.72C214.104 30.432 214.224 31.792 214.416 32.8C214.624 33.808 214.904 34.424 215.256 34.648C215.448 34.696 215.616 34.688 215.76 34.624C215.92 34.544 216.144 34.352 216.432 34.048C216.736 33.728 217.184 33.248 217.776 32.608C218.208 32.144 218.648 31.648 219.096 31.12C219.56 30.592 219.992 30.088 220.392 29.608C220.808 29.128 221.176 28.72 221.496 28.384C221.832 28.032 222.096 27.8 222.288 27.688C222.352 27.592 222.416 27.52 222.48 27.472C222.56 27.424 222.632 27.4 222.696 27.4C222.76 27.384 222.792 27.376 222.792 27.376C222.92 27.408 222.992 27.512 223.008 27.688C223.024 27.848 223.088 28.008 223.2 28.168C223.232 28.232 223.256 28.304 223.272 28.384C223.288 28.448 223.288 28.52 223.272 28.6C223.272 28.648 223.24 28.712 223.176 28.792C223.112 28.856 223.04 28.928 222.96 29.008C222.896 29.072 222.824 29.144 222.744 29.224C222.536 29.4 222.208 29.712 221.76 30.16C221.328 30.592 220.88 31.064 220.416 31.576C219.952 32.072 219.56 32.52 219.24 32.92C218.536 33.736 217.904 34.44 217.344 35.032C216.8 35.624 216.464 35.976 216.336 36.088C216.32 36.12 216.208 36.232 216 36.424C215.792 36.616 215.648 36.776 215.568 36.904L214.92 36.592ZM213.216 44.632C213.152 44.616 213.056 44.56 212.928 44.464C212.8 44.384 212.656 44.288 212.496 44.176C212.384 44.048 212.312 43.928 212.28 43.816C212.264 43.704 212.288 43.544 212.352 43.336C212.416 43.128 212.504 42.808 212.616 42.376C212.632 42.008 212.704 41.56 212.832 41.032C212.976 40.504 213.144 40.064 213.336 39.712C213.336 39.536 213.376 39.296 213.456 38.992C213.536 38.688 213.632 38.376 213.744 38.056C213.872 37.72 213.984 37.432 214.08 37.192L214.512 35.944L215.472 35.128L216.144 35.872C216.08 35.968 216.024 36.08 215.976 36.208C215.928 36.336 215.864 36.552 215.784 36.856C215.704 37.16 215.584 37.632 215.424 38.272C215.296 38.704 215.152 39.168 214.992 39.664C214.848 40.16 214.712 40.624 214.584 41.056C214.456 41.488 214.344 41.84 214.248 42.112C214.056 42.832 213.912 43.384 213.816 43.768C213.72 44.152 213.632 44.4 213.552 44.512C213.488 44.64 213.376 44.68 213.216 44.632ZM224.288 42.16C223.952 42.448 223.56 42.616 223.112 42.664C222.68 42.712 222.256 42.648 221.84 42.472C221.424 42.28 221.08 41.992 220.808 41.608C220.536 41.256 220.36 40.856 220.28 40.408C220.2 39.944 220.192 39.344 220.256 38.608C220.304 37.984 220.504 37.36 220.856 36.736C221.208 36.096 221.632 35.528 222.128 35.032C222.64 34.536 223.144 34.192 223.64 34C223.88 33.84 224.08 33.768 224.24 33.784C224.416 33.784 224.68 33.8 225.032 33.832C225.4 33.88 225.672 33.952 225.848 34.048C226.04 34.144 226.192 34.272 226.304 34.432C226.544 34.672 226.704 34.912 226.784 35.152C226.864 35.376 226.904 35.6 226.904 35.824C226.84 36.176 226.6 36.608 226.184 37.12C225.784 37.616 225.256 38.024 224.6 38.344C224.248 38.456 223.864 38.504 223.448 38.488C223.032 38.472 222.688 38.368 222.416 38.176C222.112 38.048 221.912 38.072 221.816 38.248C221.72 38.408 221.632 38.808 221.552 39.448C221.488 40.056 221.536 40.504 221.696 40.792C221.856 41.064 222.072 41.224 222.344 41.272C222.664 41.336 222.912 41.384 223.088 41.416C223.28 41.432 223.512 41.36 223.784 41.2C224.04 41.04 224.2 40.952 224.264 40.936C224.328 40.904 224.376 40.872 224.408 40.84C224.456 40.792 224.56 40.688 224.72 40.528C224.832 40.416 224.92 40.336 224.984 40.288C225.048 40.224 225.12 40.192 225.2 40.192C225.28 40.192 225.352 40.232 225.416 40.312C225.48 40.376 225.544 40.424 225.608 40.456C225.768 40.456 225.8 40.552 225.704 40.744C225.624 40.936 225.456 41.168 225.2 41.44C224.944 41.696 224.64 41.936 224.288 42.16ZM224.264 37.072C224.44 36.992 224.624 36.88 224.816 36.736C225.008 36.576 225.168 36.408 225.296 36.232C225.44 36.04 225.512 35.88 225.512 35.752C225.512 35.528 225.408 35.344 225.2 35.2C224.992 35.04 224.68 35.016 224.264 35.128C224.088 35.176 223.888 35.296 223.664 35.488C223.44 35.664 223.224 35.864 223.016 36.088C222.824 36.312 222.664 36.512 222.536 36.688C222.424 36.864 222.384 36.968 222.416 37C222.464 37.08 222.6 37.144 222.824 37.192C223.048 37.224 223.296 37.232 223.568 37.216C223.856 37.2 224.088 37.152 224.264 37.072ZM229.909 42.304C229.781 42.336 229.613 42.352 229.405 42.352C229.197 42.336 229.013 42.312 228.853 42.28C228.709 42.232 228.637 42.184 228.637 42.136C228.637 42.056 228.597 42.016 228.517 42.016C228.517 42.016 228.477 41.984 228.397 41.92C228.333 41.856 228.229 41.792 228.085 41.728C227.941 41.504 227.869 41.264 227.869 41.008C227.869 40.736 227.941 40.312 228.085 39.736C228.133 39.336 228.285 38.872 228.541 38.344C228.813 37.8 229.141 37.248 229.525 36.688C229.909 36.128 230.309 35.624 230.725 35.176C231.157 34.728 231.549 34.4 231.901 34.192C232.125 33.968 232.397 33.848 232.717 33.832C233.037 33.816 233.341 33.888 233.629 34.048C233.789 34.128 233.949 34.256 234.109 34.432C234.269 34.608 234.421 34.8 234.565 35.008C234.709 35.216 234.829 35.424 234.925 35.632C234.973 35.808 234.997 35.968 234.997 36.112C235.013 36.24 235.013 36.4 234.997 36.592C234.997 36.784 234.973 37.072 234.925 37.456C234.845 37.744 234.773 38.096 234.709 38.512C234.661 38.928 234.637 39.288 234.637 39.592C234.605 39.896 234.637 40.112 234.733 40.24C234.845 40.368 235.005 40.376 235.213 40.264C235.405 40.168 235.589 40.128 235.765 40.144C235.941 40.144 236.077 40.192 236.173 40.288C236.285 40.384 236.341 40.528 236.341 40.72C236.341 40.912 236.245 41.112 236.053 41.32C235.877 41.512 235.653 41.68 235.381 41.824C235.125 41.952 234.877 42.016 234.637 42.016C234.461 42.016 234.293 41.912 234.133 41.704C233.973 41.48 233.829 41.216 233.701 40.912C233.589 40.592 233.485 40.288 233.389 40L233.245 39.448L232.213 40.432C232.005 40.656 231.797 40.864 231.589 41.056C231.397 41.232 231.277 41.36 231.229 41.44C231.149 41.584 230.997 41.728 230.773 41.872C230.565 42.016 230.277 42.16 229.909 42.304ZM229.981 40.888C230.253 40.728 230.565 40.496 230.917 40.192C231.269 39.872 231.613 39.528 231.949 39.16C232.285 38.776 232.565 38.424 232.789 38.104C233.061 37.736 233.269 37.392 233.413 37.072C233.557 36.752 233.661 36.448 233.725 36.16C233.661 35.984 233.557 35.8 233.413 35.608C233.269 35.4 233.141 35.288 233.029 35.272C232.677 35.272 232.301 35.496 231.901 35.944C231.517 36.376 231.141 36.848 230.773 37.36C230.709 37.44 230.621 37.568 230.509 37.744C230.397 37.92 230.285 38.088 230.173 38.248C230.077 38.392 230.013 38.488 229.981 38.536C229.933 38.6 229.837 38.784 229.693 39.088C229.565 39.376 229.437 39.672 229.309 39.976C229.181 40.264 229.117 40.456 229.117 40.552C229.117 40.648 229.125 40.752 229.141 40.864C229.173 40.976 229.253 41.048 229.381 41.08C229.509 41.112 229.709 41.048 229.981 40.888ZM239.83 38.92C239.382 39 239.086 38.784 238.942 38.272C238.798 37.76 238.838 37.056 239.062 36.16C239.158 35.968 239.238 35.784 239.302 35.608C239.366 35.416 239.398 35.264 239.398 35.152C239.462 34.944 239.542 34.704 239.638 34.432C239.75 34.144 239.862 33.88 239.974 33.64C240.086 33.384 240.166 33.216 240.214 33.136C240.278 33.136 240.342 33.08 240.406 32.968C240.486 32.856 240.526 32.744 240.526 32.632C240.526 32.504 240.55 32.36 240.598 32.2C240.662 32.04 240.726 31.928 240.79 31.864C240.79 31.784 240.822 31.696 240.886 31.6C240.95 31.504 240.982 31.424 240.982 31.36C240.982 31.296 240.998 31.24 241.03 31.192C241.078 31.144 241.102 31.088 241.102 31.024C241.246 30.768 241.43 30.392 241.654 29.896C241.894 29.384 242.126 28.848 242.35 28.288C242.59 27.728 242.79 27.232 242.95 26.8C243.11 26.368 243.19 26.104 243.19 26.008C243.222 25.88 243.27 25.784 243.334 25.72C243.398 25.656 243.494 25.64 243.622 25.672C243.686 25.624 243.75 25.6 243.814 25.6C243.878 25.584 243.942 25.576 244.006 25.576C244.006 25.576 244.03 25.608 244.078 25.672C244.142 25.736 244.23 25.832 244.342 25.96C244.47 26.072 244.542 26.2 244.558 26.344C244.574 26.488 244.582 26.656 244.582 26.848C244.566 27.152 244.454 27.496 244.246 27.88C244.038 28.264 243.806 28.688 243.55 29.152C243.39 29.456 243.23 29.744 243.07 30.016C242.926 30.288 242.854 30.456 242.854 30.52C242.854 30.584 242.822 30.68 242.758 30.808C242.694 30.936 242.622 31.096 242.542 31.288C242.446 31.448 242.342 31.64 242.23 31.864C242.118 32.088 242.014 32.296 241.918 32.488C241.838 32.664 241.798 32.776 241.798 32.824C241.782 32.888 241.758 32.952 241.726 33.016C241.71 33.08 241.67 33.144 241.606 33.208C241.542 33.208 241.502 33.256 241.486 33.352C241.486 33.432 241.486 33.472 241.486 33.472C241.486 33.536 241.446 33.688 241.366 33.928C241.302 34.152 241.19 34.424 241.03 34.744C240.726 35.592 240.51 36.272 240.382 36.784C240.254 37.28 240.174 37.704 240.142 38.056C240.11 38.44 240.078 38.664 240.046 38.728C240.03 38.792 239.958 38.856 239.83 38.92ZM238.534 42.76C238.23 42.872 237.974 42.928 237.766 42.928C237.574 42.912 237.358 42.816 237.118 42.64C236.814 42.352 236.71 42.064 236.806 41.776C236.918 41.472 237.182 41.176 237.598 40.888C237.886 40.712 238.094 40.616 238.222 40.6C238.366 40.584 238.582 40.64 238.87 40.768C239.35 41.072 239.558 41.408 239.494 41.776C239.446 42.144 239.126 42.472 238.534 42.76Z" fill="white"/>
<path d="M32.4419 115.19C33.7904 109.162 35.1301 103.163 36.6174 97.163C30.3143 102.534 24.4475 108.782 19.1051 115.079C20.6932 107.277 23.2206 99.6634 25.4956 92.043C19.9706 94.7636 15.3523 99.9466 10.8584 104.005" stroke="#238500" stroke-width="3.94849" stroke-miterlimit="1.5" stroke-linecap="round" stroke-linejoin="round"/>
<path d="M66.0373 380.432C65.9238 379.126 66.0594 377.784 66.0064 376.473C65.9205 374.348 65.6359 372.231 65.5882 370.105C64.4232 371.162 63.3924 372.373 62.2085 373.409C60.8716 374.579 59.3488 375.716 58.2151 377.088C57.9989 373.931 57.7886 370.773 57.5909 367.615C55.1766 369.711 52.6582 371.908 50.4419 374.199L49.3626 364.815C46.6157 366.753 44.2163 369.202 41.4508 371.147C41.3947 368.456 41.0827 365.677 41.1626 363.004C38.9165 364.673 36.791 366.843 34.7485 368.749" stroke="white" stroke-width="3.94849" stroke-miterlimit="1.5" stroke-linecap="round" stroke-linejoin="round"/>
<path fill-rule="evenodd" clip-rule="evenodd" d="M440.517 187.304C442.569 185.132 444.834 183.134 446.968 181.042C444.035 180.88 441.072 180.418 438.133 180.548C438.094 178.476 437.967 176.417 437.524 174.383C435.76 176.07 433.848 177.711 432.388 179.671C431.528 177.339 430.309 175.014 428.857 173C427.445 175.319 426.195 177.935 425.402 180.519C423.407 180.134 421.305 179.918 419.275 179.914C419.88 181.972 420.674 183.977 421.425 185.985C420.135 187.359 418.937 188.987 418 190.63C419.354 190.992 420.765 191.133 422.137 191.414C421.853 193.564 421.805 195.745 421.673 197.909C423.446 197.094 425.099 196.048 426.704 194.944C427.712 196.86 428.602 198.832 429.601 200.752C430.749 198.881 431.905 196.953 433.183 195.164C434.594 196.609 436.421 197.598 437.951 198.92C437.769 196.967 437.882 195.01 437.869 193.053C440.041 193.139 442.261 193.069 444.438 193.071C443.07 191.332 441.707 189.589 440.437 187.774" fill="#238500"/>
<defs>
<linearGradient id="paint0_linear_1173_14348" x1="301.035" y1="275.041" x2="301.035" y2="328.372" gradientUnits="userSpaceOnUse">
<stop stop-color="#9E9E9E"/>
<stop offset="1" stop-color="#9E9E9E" stop-opacity="0"/>
</linearGradient>
<linearGradient id="paint1_linear_1173_14348" x1="203.609" y1="230.782" x2="203.609" y2="462.275" gradientUnits="userSpaceOnUse">
<stop stop-color="#9E9E9E"/>
<stop offset="1" stop-color="#9E9E9E" stop-opacity="0"/>
</linearGradient>
</defs>
</svg>
