<svg width="53" height="37" viewBox="0 0 53 37" fill="none" xmlns="http://www.w3.org/2000/svg">
<path d="M12.1757 36.527C8.83333 36.527 5.96847 35.3333 3.58108 32.9459C1.19369 30.3994 0 27.4549 0 24.1126C0 17.5871 2.22823 12.1757 6.68469 7.87838C11.3003 3.58108 16.473 0.954952 22.2027 0C18.2237 2.7057 15.4384 6.68467 13.8468 11.9369C16.8709 12.2552 19.3378 13.6081 21.2477 15.9955C23.3168 18.3829 24.3514 21.0886 24.3514 24.1126C24.3514 27.4549 23.1577 30.3994 20.7703 32.9459C18.3829 35.3333 15.518 36.527 12.1757 36.527ZM40.8243 36.527C37.482 36.527 34.6171 35.3333 32.2297 32.9459C29.8423 30.3994 28.6487 27.4549 28.6487 24.1126C28.6487 17.5871 30.8769 12.1757 35.3333 7.87838C39.949 3.58108 45.1216 0.954952 50.8514 0C46.8724 2.7057 44.0871 6.68467 42.4955 11.9369C45.5195 12.2552 47.9865 13.6081 49.8964 15.9955C51.9655 18.3829 53 21.0886 53 24.1126C53 27.4549 51.8063 30.3994 49.4189 32.9459C47.0315 35.3333 44.1667 36.527 40.8243 36.527Z" fill="#238500"/>
</svg>
